# xmcd
#
# Track frame offsets:
# 182
# 16907
# 26407
# 43550
# 56522
# 71195
# 84862
# 97387
# 109860
# 125705
# 140910
# 155007
# 168817
#
# Disc length: 2461 seconds
#
#
# Revision: 0
# Processed by: cddbd v1.5.1PL0 Copyright (c) Steve Scherf et al.
# Submitted via: FreeRIP 2.70 
#
DISCID=b3099b0d
DTITLE=Varioius - 40 Great Country Classics Disc 3
DYEAR=1994
DGENRE=Country
TTITLE0=Always On My Mind
TTITLE1=I'm Walkin' The Floor Over You
TTITLE2=Blue Bayou
TTITLE3=Are You Sure Hank Done It This Way
TTITLE4=Lukenback, Texas (Back To The Basics Of Love)
TTITLE5=Coalminer's Daughter
TTITLE6=Wasted Days And Wasted Nights
TTITLE7=Most Beautiful Girl
TTITLE8=The Devil Went Down To Georgia
TTITLE9=40 Hour Week
TTITLE10=Holding Her And Loving You
TTITLE11=Slow Hand
TTITLE12=Lyin' In His Arms Again
EXTD=
EXTT0=
EXTT1=
EXTT2=
EXTT3=
EXTT4=
EXTT5=
EXTT6=
EXTT7=
EXTT8=
EXTT9=
EXTT10=
EXTT11=
EXTT12=
PLAYORDER=
